<mxfile host="app.diagrams.net" modified="2022-02-09T06:02:12.359Z" agent="5.0 (Windows NT 10.0; Win64; x64) AppleWebKit/537.36 (KHTML, like Gecko) Chrome/97.0.4692.99 Safari/537.36" etag="BqMxiGy7tWzn5smbWxGi" version="16.5.2" type="github">
  <diagram id="geV-e4haCWNm6dhYaODH" name="Page-1">
    <mxGraphModel dx="782" dy="468" grid="1" gridSize="10" guides="1" tooltips="1" connect="1" arrows="1" fold="1" page="1" pageScale="1" pageWidth="850" pageHeight="1100" math="0" shadow="0">
      <root>
        <mxCell id="0" />
        <mxCell id="1" parent="0" />
        <mxCell id="CFy70QxZDCoatLMjdoaV-2" value="" style="rounded=0;whiteSpace=wrap;html=1;" vertex="1" parent="1">
          <mxGeometry x="420" y="87.5" width="111.25" height="62.5" as="geometry" />
        </mxCell>
        <mxCell id="CFy70QxZDCoatLMjdoaV-3" value="&lt;font style=&quot;font-size: 14px&quot;&gt;WebSub&lt;/font&gt;" style="rounded=0;whiteSpace=wrap;html=1;" vertex="1" parent="1">
          <mxGeometry x="550" y="196.25" width="120" height="60" as="geometry" />
        </mxCell>
        <mxCell id="CFy70QxZDCoatLMjdoaV-4" value="&lt;font style=&quot;font-size: 14px&quot;&gt;Partner management service&lt;/font&gt;" style="rounded=0;whiteSpace=wrap;html=1;" vertex="1" parent="1">
          <mxGeometry x="142.5" y="200" width="120" height="60" as="geometry" />
        </mxCell>
        <mxCell id="CFy70QxZDCoatLMjdoaV-6" value="4" style="ellipse;whiteSpace=wrap;html=1;aspect=fixed;" vertex="1" parent="1">
          <mxGeometry x="357.5" y="315" width="20" height="20" as="geometry" />
        </mxCell>
        <mxCell id="CFy70QxZDCoatLMjdoaV-7" value="" style="rounded=0;whiteSpace=wrap;html=1;" vertex="1" parent="1">
          <mxGeometry x="480" y="320" width="140" height="60" as="geometry" />
        </mxCell>
        <mxCell id="CFy70QxZDCoatLMjdoaV-8" value="&lt;font style=&quot;font-size: 14px&quot;&gt;Identity Service&lt;/font&gt;" style="rounded=0;whiteSpace=wrap;html=1;" vertex="1" parent="1">
          <mxGeometry x="200" y="320" width="120" height="60" as="geometry" />
        </mxCell>
        <mxCell id="CFy70QxZDCoatLMjdoaV-11" value="2" style="ellipse;whiteSpace=wrap;html=1;aspect=fixed;" vertex="1" parent="1">
          <mxGeometry x="500" y="236.25" width="20" height="20" as="geometry" />
        </mxCell>
        <mxCell id="CFy70QxZDCoatLMjdoaV-14" value="&lt;font style=&quot;font-size: 14px&quot;&gt;Key Manager&lt;/font&gt;" style="text;html=1;strokeColor=none;fillColor=none;align=center;verticalAlign=middle;whiteSpace=wrap;rounded=0;" vertex="1" parent="1">
          <mxGeometry x="440" y="103.75" width="60" height="30" as="geometry" />
        </mxCell>
        <mxCell id="CFy70QxZDCoatLMjdoaV-16" value="&lt;font style=&quot;font-size: 13px&quot;&gt;DataShare&lt;/font&gt;" style="text;html=1;strokeColor=none;fillColor=none;align=center;verticalAlign=middle;whiteSpace=wrap;rounded=0;" vertex="1" parent="1">
          <mxGeometry x="512.5" y="335" width="70" height="30" as="geometry" />
        </mxCell>
        <mxCell id="CFy70QxZDCoatLMjdoaV-17" value="&lt;font style=&quot;font-size: 14px&quot;&gt;Auth Adapter&lt;/font&gt;" style="rounded=0;whiteSpace=wrap;html=1;" vertex="1" parent="1">
          <mxGeometry x="280" y="88.75" width="110" height="61.25" as="geometry" />
        </mxCell>
        <mxCell id="CFy70QxZDCoatLMjdoaV-19" value="6" style="ellipse;whiteSpace=wrap;html=1;aspect=fixed;" vertex="1" parent="1">
          <mxGeometry x="357.5" y="160" width="20" height="20" as="geometry" />
        </mxCell>
        <mxCell id="CFy70QxZDCoatLMjdoaV-20" value="&lt;b&gt;&lt;font style=&quot;font-size: 14px&quot;&gt;Credential service&lt;/font&gt;&lt;/b&gt;" style="rounded=1;whiteSpace=wrap;html=1;" vertex="1" parent="1">
          <mxGeometry x="340" y="200" width="130" height="60" as="geometry" />
        </mxCell>
        <mxCell id="CFy70QxZDCoatLMjdoaV-21" value="" style="endArrow=classic;html=1;rounded=0;fontSize=14;entryX=0;entryY=0.333;entryDx=0;entryDy=0;entryPerimeter=0;" edge="1" parent="1" target="CFy70QxZDCoatLMjdoaV-7">
          <mxGeometry width="50" height="50" relative="1" as="geometry">
            <mxPoint x="420" y="262" as="sourcePoint" />
            <mxPoint x="430" y="190" as="targetPoint" />
            <Array as="points">
              <mxPoint x="420" y="340" />
            </Array>
          </mxGeometry>
        </mxCell>
        <mxCell id="CFy70QxZDCoatLMjdoaV-22" value="" style="endArrow=classic;startArrow=classic;html=1;rounded=0;fontSize=14;entryX=0;entryY=0.5;entryDx=0;entryDy=0;" edge="1" parent="1" target="CFy70QxZDCoatLMjdoaV-3">
          <mxGeometry width="50" height="50" relative="1" as="geometry">
            <mxPoint x="470" y="226" as="sourcePoint" />
            <mxPoint x="420" y="180" as="targetPoint" />
          </mxGeometry>
        </mxCell>
        <mxCell id="CFy70QxZDCoatLMjdoaV-25" value="" style="endArrow=classic;html=1;rounded=0;fontSize=14;entryX=0;entryY=0.5;entryDx=0;entryDy=0;" edge="1" parent="1" target="CFy70QxZDCoatLMjdoaV-20">
          <mxGeometry width="50" height="50" relative="1" as="geometry">
            <mxPoint x="262.5" y="230" as="sourcePoint" />
            <mxPoint x="312.5" y="180" as="targetPoint" />
          </mxGeometry>
        </mxCell>
        <mxCell id="CFy70QxZDCoatLMjdoaV-27" value="" style="endArrow=classic;html=1;rounded=0;fontSize=14;" edge="1" parent="1">
          <mxGeometry width="50" height="50" relative="1" as="geometry">
            <mxPoint x="320" y="340" as="sourcePoint" />
            <mxPoint x="390" y="260" as="targetPoint" />
            <Array as="points">
              <mxPoint x="390" y="340" />
            </Array>
          </mxGeometry>
        </mxCell>
        <mxCell id="CFy70QxZDCoatLMjdoaV-28" value="" style="endArrow=classic;html=1;rounded=0;fontSize=14;exitX=0.25;exitY=1;exitDx=0;exitDy=0;" edge="1" parent="1" source="CFy70QxZDCoatLMjdoaV-2">
          <mxGeometry width="50" height="50" relative="1" as="geometry">
            <mxPoint x="380" y="240" as="sourcePoint" />
            <mxPoint x="448" y="200" as="targetPoint" />
          </mxGeometry>
        </mxCell>
        <mxCell id="CFy70QxZDCoatLMjdoaV-29" value="" style="endArrow=classic;html=1;rounded=0;fontSize=14;" edge="1" parent="1">
          <mxGeometry width="50" height="50" relative="1" as="geometry">
            <mxPoint x="350" y="150" as="sourcePoint" />
            <mxPoint x="350" y="200" as="targetPoint" />
          </mxGeometry>
        </mxCell>
        <mxCell id="CFy70QxZDCoatLMjdoaV-32" value="5" style="ellipse;whiteSpace=wrap;html=1;aspect=fixed;" vertex="1" parent="1">
          <mxGeometry x="290" y="240" width="22.5" height="22.5" as="geometry" />
        </mxCell>
        <mxCell id="CFy70QxZDCoatLMjdoaV-33" value="3" style="ellipse;whiteSpace=wrap;html=1;aspect=fixed;" vertex="1" parent="1">
          <mxGeometry x="437.5" y="315" width="20" height="20" as="geometry" />
        </mxCell>
        <mxCell id="CFy70QxZDCoatLMjdoaV-34" value="1" style="ellipse;whiteSpace=wrap;html=1;aspect=fixed;" vertex="1" parent="1">
          <mxGeometry x="457.5" y="160" width="20" height="20" as="geometry" />
        </mxCell>
      </root>
    </mxGraphModel>
  </diagram>
</mxfile>
